<svg version="1.1"
     xmlns="http://www.w3.org/2000/svg"  
     xmlns:xlink="http://www.w3.org/1999/xlink"
     xmlns:svgjs="http://svgjs.com/svgjs" 
     preserveAspectRatio="xMidYMid meet"  
     viewBox="0 0 280 280">
<text x="20" y="40.0" font-family="Arial" font-size="40" text-anchor="start" dominant-baseline="auto" fill="#000000">I</text>
<line x1="20" y1="60" x2="20" y2="260" stroke-width="2" stroke="#000000"/>
<line x1="80" y1="60" x2="80" y2="260" stroke-width="2" stroke="#000000"/>
<line x1="140" y1="60" x2="140" y2="260" stroke-width="2" stroke="#000000"/>
<line x1="200" y1="60" x2="200" y2="260" stroke-width="2" stroke="#000000"/>
<line x1="260" y1="60" x2="260" y2="260" stroke-width="2" stroke="#000000"/>
<line x1="20" y1="60" x2="260" y2="60" stroke-width="2" stroke="#000000"/>
<line x1="20" y1="100" x2="260" y2="100" stroke-width="2" stroke="#000000"/>
<line x1="20" y1="140" x2="260" y2="140" stroke-width="2" stroke="#000000"/>
<line x1="20" y1="180" x2="260" y2="180" stroke-width="2" stroke="#000000"/>
<line x1="20" y1="220" x2="260" y2="220" stroke-width="2" stroke="#000000"/>
<line x1="20" y1="260" x2="260" y2="260" stroke-width="2" stroke="#000000"/>
<circle r="15" cx="170.0" cy="60" fill="#000000" stroke-width="0" stroke="#000000"/>
<circle r="15" cx="230.0" cy="100" fill="#000000" stroke-width="0" stroke="#000000"/>
<circle r="15" cx="170.0" cy="140" fill="#000000" stroke-width="0" stroke="#000000"/>
<line x1="9.5" y1="209.5" x2="30.5" y2="230.5" stroke-width="2" stroke="#000000"/>
<line x1="9.5" y1="230.5" x2="30.5" y2="209.5" stroke-width="2" stroke="#000000"/>
<line x1="9.5" y1="249.5" x2="30.5" y2="270.5" stroke-width="2" stroke="#000000"/>
<line x1="9.5" y1="270.5" x2="30.5" y2="249.5" stroke-width="2" stroke="#000000"/>

<circle r="10.5" cx="20" cy="180" fill="none" stroke-width="2" stroke="#000000"/>
</svg>